<?xml version="1.0" encoding="utf-8"?>
<!-- Generator: Adobe Illustrator 21.0.0, SVG Export Plug-In . SVG Version: 6.00 Build 0)  -->
<svg version="1.1" id="Layer_1" xmlns="http://www.w3.org/2000/svg" xmlns:xlink="http://www.w3.org/1999/xlink" x="0px" y="0px"
	 viewBox="0 0 35.4 49.4" style="enable-background:new 0 0 35.4 49.4;" xml:space="preserve">
<path d="M35.4,17.3C35.4,7.8,27.7,0,18.1,0h-0.8C7.8,0,0,7.8,0,17.3V32c0,9.6,7.8,17.3,17.3,17.3h0.8c9.6,0,17.3-7.8,17.3-17.3V17.3
	z M32.5,32c0,4-1.6,7.6-4.2,10.2c-2.6,2.6-6.2,4.2-10.2,4.2h-0.8c-4,0-7.6-1.6-10.2-4.2C4.5,39.6,2.9,36,2.9,32V17.3
	c0-4,1.6-7.6,4.2-10.2c2.6-2.6,6.2-4.2,10.2-4.2h0.8c4,0,7.6,1.6,10.2,4.2c2.6,2.6,4.2,6.2,4.2,10.2V32z"/>
<path d="M17.7,14.6c-0.8,0-1.5,0.7-1.5,1.5v4.3c0,0.8,0.7,1.5,1.5,1.5s1.5-0.7,1.5-1.5V16C19.1,15.2,18.5,14.6,17.7,14.6z"/>
<path d="M16.8,69.4c0.5,0.4,1.3,0.4,1.8,0l7.3-5.8c0.6-0.5,0.7-1.4,0.2-2c-0.5-0.6-1.4-0.7-2-0.2l0,0l-6.4,5.1l-6.4-5.1
	c-0.6-0.5-1.5-0.4-2,0.2c-0.5,0.6-0.4,1.5,0.2,2L16.8,69.4z"/>
</svg>
