<?xml version="1.0" encoding="utf-8"?>
<!-- Generator: Adobe Illustrator 21.0.0, SVG Export Plug-In . SVG Version: 6.00 Build 0)  -->
<svg version="1.1" id="Layer_1" xmlns="http://www.w3.org/2000/svg" xmlns:xlink="http://www.w3.org/1999/xlink" x="0px" y="0px"
	 viewBox="0 0 92.3 94" style="enable-background:new 0 0 92.3 94;" xml:space="preserve">
<path d="M63.1,45.7c-1.1,0-2,0.9-2,2V78L43,64.3c-0.9-0.7-2.1-0.5-2.8,0.4c-0.7,0.9-0.5,2.1,0.4,2.8l21.3,16.1
	c0.4,0.3,0.8,0.4,1.2,0.4c0.3,0,0.6-0.1,0.9-0.2c0.7-0.3,1.1-1,1.1-1.8V47.7C65.1,46.5,64.2,45.7,63.1,45.7z M85.8,13.6
	c-0.7-0.8-2-0.9-2.8-0.2L65.1,29.4V13.5c0-0.8-0.4-1.5-1.1-1.8c-0.7-0.3-1.5-0.3-2.1,0.2L34.3,32.7H21.4c-2.1,0-3.9,1.7-3.9,3.9
	v22.3c0,2.1,1.7,3.9,3.9,3.9h5.9L9,79.1c-0.8,0.7-0.9,2-0.2,2.8c0.4,0.4,0.9,0.7,1.5,0.7c0.5,0,0.9-0.2,1.3-0.5l74-65.7
	C86.5,15.7,86.6,14.4,85.8,13.6z M61.1,32.9L31.9,58.8H21.6V36.7H35c0.4,0,0.9-0.1,1.2-0.4l24.9-18.8L61.1,32.9z"/>
</svg>
