<svg xmlns="http://www.w3.org/2000/svg" viewBox="0 0 89.95 69.31"><title>90degrees icon</title><g id="Layer_2" data-name="Layer 2"><g id="Layer_1-2" data-name="Layer 1"><path d="M22.32,57H2.55a.36.36,0,0,1-.36-.36v-47a.36.36,0,0,1,.36-.36H29.08a.36.36,0,0,1,.36.36v27h1.89V4.17a4,4,0,0,0-4-4h-.9A.36.36,0,0,0,26.14,0H22.69a.36.36,0,0,0-.33.21H4.17a4,4,0,0,0-4,4V9.28A.36.36,0,0,0,0,9.6v1.31a.36.36,0,0,0,.21.32v1.52a.36.36,0,0,0-.21.33v1.31a.36.36,0,0,0,.21.32V61.88a4,4,0,0,0,4,4H22.32ZM15.65,2.76a.6.6,0,1,1-.6.6A.6.6,0,0,1,15.65,2.76Zm-2.1,2.82H18a.36.36,0,1,1,0,.72h-4.5a.36.36,0,1,1,0-.72ZM16,64.33a3.12,3.12,0,1,1,3.12-3.12A3.12,3.12,0,0,1,16,64.33Z"/><path d="M16,58.79a2.4,2.4,0,1,0,2.4,2.4A2.4,2.4,0,0,0,16,58.79Z"/><path d="M28.73,51.59a2.4,2.4,0,1,0,2.4,2.4A2.4,2.4,0,0,0,28.73,51.59Z"/><path d="M89.74,60.35V42.15a4,4,0,0,0-4-4H80.67a.35.35,0,0,0-.32-.21H79a.35.35,0,0,0-.32.21H77.19a.36.36,0,0,0-.33-.21H75.56a.35.35,0,0,0-.32.21H28.07a4,4,0,0,0-4,4v23.2a4,4,0,0,0,4,4H85.78a4,4,0,0,0,4-4v-.9a.36.36,0,0,0,.21-.32V60.68A.36.36,0,0,0,89.74,60.35Zm-61-3.24A3.12,3.12,0,1,1,31.85,54,3.12,3.12,0,0,1,28.73,57.11Zm52,10a.36.36,0,0,1-.36.36h-47a.36.36,0,0,1-.36-.36V40.53a.36.36,0,0,1,.36-.36h47a.36.36,0,0,1,.36.36V67.06Zm3.63-11a.36.36,0,1,1-.72,0v-4.5a.36.36,0,1,1,.72,0Zm2.22-1.8a.6.6,0,1,1,.6-.6A.6.6,0,0,1,86.59,54.23Z"/><path d="M39.45,12.05l-1.83,1.69c9.58,1,14.15,6.55,16.29,11.16a26,26,0,0,1,2.34,10.26v.53H54.81v-.55a24.89,24.89,0,0,0-2.23-9.67c-2.84-6.07-7.86-9.51-14.92-10.27l1.6,1.73-2.07-.08-2.34-2.53L37.38,12Z"/></g></g></svg>