<?xml version="1.0" encoding="utf-8"?>
<!-- Generator: Adobe Illustrator 21.0.0, SVG Export Plug-In . SVG Version: 6.00 Build 0)  -->
<svg version="1.1" id="Vrstva_1" xmlns="http://www.w3.org/2000/svg" xmlns:xlink="http://www.w3.org/1999/xlink" x="0px" y="0px"
	 viewBox="0 0 3215 1024" style="enable-background:new 0 0 3215 1024;" xml:space="preserve">
<title></title>
<g id="icomoon-ignore">
</g>
<path d="M3163.6,464.1c0.4-22.2-1.6-44.2-27.3-44.2c-15.6,0-25.7,6.2-25.7,23.3c0,19,12.3,26.3,26.7,35.6
	c21.3,13.1,39.8,26.6,57.1,41.5l-0.6-0.5c13,11.9,21.1,28.9,21.1,47.8c0,1.5-0.1,3-0.2,4.5l0-0.2c0,47.3-31.3,72-76.8,72
	c-55.9,0-75.8-31.3-75.8-76v-18.5h46.7V564c-1.1,24.6,6.2,41.9,29.2,41.9c19.7,0,29-10.3,29-29.3c0-0.1,0-0.3,0-0.5
	c0-13.7-7.3-25.7-18.3-32.2l-0.2-0.1c-24.6-19-54.6-32.6-73.5-57.6c-7.4-10.7-11.8-23.9-11.9-38.2v0c0-42.6,23.8-65.9,73.2-65.9
	c73.9,0,72.1,57.3,72.5,81.8L3163.6,464.1z"/>
<path d="M2968.2,388.3h46.5v249.5h-48.6l-36.4-88.9c-11.2-26.4-22.6-59.3-31.9-93.1l-1.4-5.9h-0.6c1.6,20.6,3.6,45.8,4.9,71.1
	c1.4,25.3,2.3,49.9,2.3,69.9v46.9h-46.5V388.3h48.6l36.4,90.8c11.2,26.5,22.5,59.6,31.7,93.6l1.4,5.9h0.7c-1.7-22.6-3.3-47-4.6-71
	s-2.3-47.8-2.3-70.2L2968.2,388.3z"/>
<path d="M2690.7,482.7c0-19.4-3-62.8,33.6-62.8c34.7,0,33.6,44.2,33.6,64.2v63.7c0,23.9-0.3,58.2-33.6,58.2
	c-32.1,0-33.6-33.7-33.6-54.2V482.7z M2642.8,528.6c0,66.6,5,115.2,81.6,115.2s81.7-48.6,81.7-115.2v-35.6
	c-2.1-63.5-7-110.8-81.7-110.8s-79.5,47.3-81.6,110.8V528.6z"/>
<path d="M2424.2,637.8h-46.5V388.3h74.2l25,115.7c3.4,15.6,6.4,35.2,8.4,55.2l0.2,2.4h0.6c1.7-21.9,4.3-41.7,7.9-61l-0.5,3.5
	l24.9-115.7h73.9v249.5h-46.7v-78.6c0-49.2,1.2-99.1,3.9-148.8h-0.6l-50,227.3h-28.3l-48.7-227.2h-1.7c3.1,49.7,4,99.2,4,148.8
	L2424.2,637.8z"/>
<path d="M2277.5,388.3h46.6v249.5h-46.6V388.3z"/>
<path d="M2178.9,464.1c0.5-22.2-1.5-44.2-27.1-44.2c-15.8,0-25.7,6.2-25.7,23.3c0,19,11.9,26.3,26.6,35.6
	c21.4,13.1,39.8,26.6,57.1,41.5l-0.6-0.5c13,11.9,21.2,29,21.2,47.9c0,1.5,0,2.9-0.1,4.4l0-0.2c0,47.3-31.4,72-76.9,72
	c-55.9,0-75.8-31.3-75.8-76v-18.5h46.4V564c-0.8,24.6,6.2,41.9,29.4,41.9c19.8,0,28.9-10.3,28.9-29.3c0-0.2,0-0.3,0-0.5
	c0-13.7-7.3-25.7-18.3-32.2l-0.2-0.1c-24.3-19-54.5-32.6-73.4-57.6c-7.5-10.7-12.1-23.9-12.3-38.2l0-0.1c0-42.6,24-65.9,73.1-65.9
	c74.3,0,72.3,57.3,72.6,81.8L2178.9,464.1z"/>
<path d="M1819.3,388.3v249.5h46.7V524.7h80.2v-36.6h-80.2v-63.3h85.5v-36.5H1819.3z"/>
<path d="M1688.3,467.2c2.2-11.8,3.1-23,4.6-34.7c0.5-5.6,1-11.2,1.7-16.6h0.7c0.6,5.4,1.2,11,1.6,16.6c1.4,11.7,2.5,22.9,4.7,34.7
	l12.6,70.9h-40L1688.3,467.2z M1654.8,637.8l12.3-63.3h54.5l12.3,63.3h49.8l-56.4-249.5h-63l-59.6,249.5H1654.8z"/>
<path d="M1458.7,424.7h34.7c17.6,0.4,29.2,5,29.2,33.1c0,24.6-11.9,34.8-27.2,35.9h-36.9L1458.7,424.7z M1467.1,530.1
	c2.3-0.1,5-0.2,7.7-0.2c11.3,0,22.3,1.3,32.8,3.8l-1-0.2c15.9,4.7,15.7,25.6,15.9,40.8c0.3,16.7-0.6,47.3,5.2,63.3h51.1V633
	c-11.3-7.3-9.9-68.6-9.9-78.9c0-24-8.3-41.6-35.9-45.2v-0.6c31.3-4.4,38.2-32.9,38.2-60.2c0-45.9-30.8-59.9-71-59.9h-88v249.5h46.7
	V530.2L1467.1,530.1z"/>
<path d="M1107.2,0h19.1v1024h-19.1V0z"/>
<path d="M785.1,483.9c-6.3,12.5-13.9,23.2-22.7,32.7l0.1-0.1H89.7c-7.9-9.6-15.1-20.2-21.4-31.5l-0.6-1.1L785.1,483.9z"/>
<path d="M734.8,550.9H117.3c9.4,11.4,19.8,21.3,31.3,29.8l0.5,0.3h551.4c13.7-7.8,25.1-17.9,34.1-29.9L734.8,550.9L734.8,550.9z"/>
<path d="M658.6,613H489.3c-3.2,18.5-5.1,39.9-5.1,61.6c0,3,0,6,0.1,9l0-0.4c49.2-3.4,114.8-26,174.2-70.4L658.6,613z"/>
<path d="M847.9,264.7c-77.1,5-187.7,56.9-259.7,141.6c-12.4,13.6-23.7,28.6-33.5,44.6l-0.7,1.3h248c33.5-67,51-133.3,46.1-187.7
	L847.9,264.7z"/>
<path d="M367,683.2c0.3-5.7,0.4-12.5,0.4-19.2c0-18-1.1-35.8-3.2-53.2l0.2,2.1H193.5C253.8,657.2,319.2,679.8,367,683.2z"/>
<path d="M426.4,688.3c20.3-21.8,37.9-46.6,51.9-73.5l0.9-1.9H372.8C390.5,644.7,407.2,670,426.4,688.3L426.4,688.3z"/>
<path d="M299.9,452.1c-11-17.3-22.3-32.2-34.7-46.2l0.3,0.4C193.5,321.4,82,269.3,6.2,264.7c-5.4,54.2,11.4,120.4,44.9,187.4H299.9z
	"/>
<path d="M533.7,452.1c1.7-19.3,3.3-37.7,3.3-59.5c0-116.9-52.7-238.8-110.8-293.2c-58.7,54.4-110.8,176-110.8,293.2
	c-0.1,3.2-0.2,6.9-0.2,10.6c0,17.3,1.3,34.2,3.8,50.8l-0.2-1.9H533.7z"/>
<path d="M783.5,924.7c35.2,0,64.6-14.3,64.6-49.2c0-20.1-14.3-33.5-36.9-39.3s-53.6-5-53.6-20.1c1.7-10.1,10.9-12.3,25.1-12.3
	c21.8,0,22.7,11.8,23.5,19.3h35.9c-2.5-27.6-25.2-46.9-61.1-46.9c-37.7,0-59.5,20.2-59.5,46.2c0,0.3,0,0.6,0,1
	c0,14.6,8,27.4,19.9,34l0.2,0.1c10.7,4.6,23.2,8.2,36.1,10l0.8,0.1c15.9,1.7,30.2,3.3,30.8,14.2c0,7.6-7.6,16.8-24.3,16.8
	c-24.3,0-29.4-13.4-29.4-22.7H718c0.9,29.4,25.2,49.2,65.4,49.2L783.5,924.7z"/>
<path d="M668.6,777.2v10.6c-11.2-7.7-25-12.3-39.9-12.3c-0.7,0-1.4,0-2.1,0l0.1,0c-41.2,0-74.6,33.4-74.6,74.6s33.4,74.6,74.6,74.6
	l0,0c15.6-0.1,30.2-4.8,42.3-12.9l-0.3,0.2v9.2h36V777.2L668.6,777.2z M628.4,891.2c-22.9,0-41.5-18.6-41.5-41.5
	s18.6-41.5,41.5-41.5l0,0c22,1.2,39.3,19.3,39.3,41.5s-17.3,40.3-39.2,41.5L628.4,891.2L628.4,891.2z"/>
<path d="M504.4,727.7v60.1c-11.6-7.7-25.9-12.3-41.3-12.3c-0.5,0-1.1,0-1.6,0l0.1,0c-41.2,0-74.6,33.4-74.6,74.6
	s33.4,74.6,74.6,74.6l0,0c15.9-0.1,30.6-4.8,43-12.9l-0.3,0.2v9.2h35.2V727.7L504.4,727.7z M462.5,891.2
	c-22.7-0.2-41.1-18.7-41.1-41.5c0-22.9,18.6-41.5,41.5-41.5s41.5,18.6,41.5,41.5c0,0.2,0,0.3,0,0.5v0
	C503.8,872.8,485.3,891,462.5,891.2L462.5,891.2L462.5,891.2z"/>
<path d="M336.8,727.7h35.1v36.1h-35.1V727.7z"/>
<path d="M336.8,777.2h35.1v144.1h-35.1V777.2z"/>
<path d="M283.1,727.7v60.1c-12-8.5-26.9-13.5-43-13.5c-41.5,0-75.1,33.6-75.1,75.1s33.6,75.1,75.1,75.1c0.1,0,0.2,0,0.3,0h0
	c15.8-0.1,30.6-4.8,43.1-12.6l-0.3,0.2v9.2h36.1V727.7L283.1,727.7z M242.1,891.2c-0.1,0-0.3,0-0.4,0c-22.9,0-41.5-18.6-41.5-41.5
	s18.6-41.5,41.5-41.5s41.5,18.6,41.5,41.5c0,0.1,0,0.3,0,0.4v0C282.3,872.4,264.4,890.3,242.1,891.2L242.1,891.2L242.1,891.2z"/>
<path d="M118.1,777.2v10.6c-11.9-7.7-26.5-12.3-42.1-12.3c-0.5,0-1,0-1.5,0l0.1,0c-41.2,0-74.6,33.4-74.6,74.6s33.4,74.6,74.6,74.6
	l0,0c16.2-0.1,31.2-4.8,43.9-12.9l-0.3,0.2v9.2h35.1V777.2L118.1,777.2z M75.4,891.2c-22.9,0-41.5-18.6-41.5-41.5
	s18.6-41.5,41.5-41.5l0,0c22.9,0,41.5,18.6,41.5,41.5S98.3,891.2,75.4,891.2L75.4,891.2z"/>
</svg>
