<!-- Generated by IcoMoon.io -->
<svg version="1.1" xmlns="http://www.w3.org/2000/svg" width="4817" height="1024" viewBox="0 0 4817 1024">
	<title></title>
	<g id="icomoon-ignore">
	</g>
	<path d="M3509.527 364.404v353.745h-74.473v-410.671h122.973l54.225 261.213 52.969-261.492h121.856v410.531h-72.751v-358.4c-18.199 82.246-35.7 161.233-53.108 240.268-6.982 31.697-15.127 63.255-20.061 95.325-3.165 20.48-12.055 27.927-31.884 24.902-3.182-0.232-6.893-0.364-10.636-0.364s-7.454 0.132-11.13 0.393l0.494-0.028-76.707-355.375z"></path>
	<path d="M4304.896 718.383h-78.848v-412.346c23.273 0 46.545-0.884 69.213 0.652 5.306 0.372 12.474 8.145 14.708 13.964 33.839 88.855 66.979 177.943 100.259 266.985 2.327 6.237 4.655 12.474 6.47 17.501l-10.287-297.891h77.265v411.881c-23.505 0-46.545 1.117-69.539-0.791-5.725-0.465-12.94-9.775-15.546-16.524-33.094-85.783-65.489-171.846-98.025-257.862-0.83-3.366-2.978-6.121-5.851-7.742l-0.061-0.031z"></path>
	<path d="M1843.2 310.365c62.464 0 122.927-3.072 182.924 0.977 47.29 3.165 72.937 34.025 76.707 81.175 0.46 5.098 0.722 11.028 0.722 17.019 0 11.944-1.041 23.644-3.038 35.016l0.176-1.207c-5.027 27.927-19.13 50.595-54.97 61.533 57.856 16.989 54.272 60.509 55.855 102.726 1.164 36.538 5.632 72.983 8.844 111.709-19.782 0-44.311 0.931-68.655-0.791-4.98-0.372-12.66-10.426-13.265-16.57-2.793-29.975-4.375-60.183-4.934-90.298-1.117-57.763-10.38-67.817-67.258-69.213-11.404-0.279-22.807 0-36.259 0v175.011h-76.847zM1920.326 480.489c33.606-5.958 69.818 13.964 94.022-21.225 13.452-19.503 13.638-62.697-1.35-76.847-26.857-25.414-60.509-12.148-92.672-15.5z"></path>
	<path d="M4142.825 518.516c-2.234 35.98-2.653 71.68-7.075 107.055-8.285 65.489-42.17 96.815-108.172 102.679-6.275 0.573-13.572 0.9-20.945 0.9s-14.67-0.327-21.877-0.967l0.932 0.067c-63.86-5.306-102.4-34.351-107.427-97.745-2.731-32.928-4.288-71.27-4.288-109.976 0-42.704 1.895-84.966 5.606-126.706l-0.387 5.398c7.354-82.711 64.559-110.639 154.764-100.771 62.976 6.982 94.441 40.82 101.376 104.681 4.189 38.4 5.12 77.126 7.494 115.386zM4063.697 515.631c-2.001-34.583-2.42-70.237-6.609-105.425-4.049-34.211-23.645-50.688-52.829-49.711s-47.244 18.618-49.757 53.015c-2.746 37.748-3.072 75.729-3.119 113.571 0 29.37 0.605 58.833 3.444 88.017 3.212 32.582 21.457 49.059 50.409 49.897 30.348 0.884 47.895-12.753 52.224-46.545s4.143-67.817 5.958-102.772z"></path>
	<path d="M2454.807 718.522h-82.665l-20.759-102.865c-26.484 0-53.341-0.605-80.151 0.605-4.049 0-10.054 8.099-11.264 13.359-6.796 29.277-12.381 58.88-18.618 88.948h-82.525l98.164-411.369h104.634zM2308.329 371.060l-32.582 180.457h62.417z"></path>
	<path d="M4806.144 430.964h-73.169c-1.629-11.497-3.212-22.761-4.655-34.025-2.7-18.618-11.078-32.908-30.86-35.561-16.849-2.281-35.235-4.049-46.545 13.033s-8.89 36.259 2.653 52.317c6.982 9.728 17.641 17.129 27.555 24.297 30.673 22.295 62.697 42.868 92.486 66.234 45.009 35.328 50.455 83.782 36.166 134.609-13.591 48.64-51.898 70.191-98.816 75.217-6.311 0.668-13.635 1.049-21.047 1.049-17.808 0-35.103-2.198-51.627-6.339l1.46 0.31c-46.080-11.217-68.655-45.335-74.473-90.577-2.374-18.618-0.419-38.214-0.419-58.508h74.473c0.931 15.546 1.629 30.022 2.7 44.497 1.536 20.573 8.006 39.424 29.603 45.335 18.618 5.167 39.61 6.191 53.853-11.124s14.848-39.238 4.655-59.066c-6.080-11.009-14.18-20.179-23.878-27.299l-0.232-0.163c-30.348-22.761-62.464-43.148-92.486-66.327-42.729-33.047-58.228-76.567-44.823-129.676 6.004-23.692 18.292-43.241 40.122-54.412 50.223-25.647 102.4-27.462 150.993 0.838 42.496 24.529 45.149 68.934 46.313 115.34z"></path>
	<path d="M2941.44 572.509h73.216c0.931 14.848 1.815 29.184 2.793 43.473 1.489 21.457 8.052 41.239 30.813 46.964 19.549 4.934 40.634 5.585 55.017-13.964 12.335-16.756 12.335-44.032-0.977-63.581-5.867-8.274-12.831-15.297-20.777-21.045l-0.261-0.18c-30.022-21.923-61.068-42.403-90.81-64.652-35.188-26.345-53.108-61.533-50.176-106.449 3.258-49.617 31.139-82.618 79.686-92.067 12.364-2.594 26.649-4.177 41.269-4.374l0.157-0.002c82.897-0.605 127.023 48.826 118.225 133.632h-71.308c-1.396-10.287-2.793-20.108-4.049-29.929-2.513-20.015-10.054-36.631-32.582-39.284-18.618-2.188-38.679-3.537-48.081 18.060s-3.351 41.425 13.219 57.065c9.309 8.937 21.271 15.36 31.977 22.993 26.438 18.897 54.086 36.352 79.127 57.018 42.403 35.095 54.831 86.109 36.678 138.659-15.313 44.311-55.575 71.075-110.685 73.495-98.304 4.608-145.036-49.385-132.468-155.834z"></path>
	<path d="M2590.999 532.852v184.879h-76.8v-409.6h215.319v58.927h-137.821v103.052h129.35v62.79z"></path>
	<path d="M3344.291 718.755h-73.076v-411.555h73.076z"></path>
	<path d="M1075.805 901.167c-55.017 0-87.738-27.927-89.693-67.491h51.852c0 12.335 7.82 30.487 41.239 31.139 22.295 0 32.582-13.033 32.582-22.714-1.35-15.453-20.945-16.803-41.891-20.061s-38.586-7.075-51.665-13.638c-16.494-9.178-27.469-26.507-27.469-46.399 0-0.297 0.002-0.593 0.007-0.889l-0.001 0.045c0-35.142 30.767-63.023 81.873-63.023 49.478 0 81.082 25.926 84.387 64.279h-49.804c-0.605-10.333-2.607-26.624-32.070-26.624-19.549 0-32.582 4.003-34.025 17.548 0 20.108 41.239 18.618 73.356 27.229 30.673 7.727 50.409 26.577 50.409 53.201 0 48.593-39.889 67.491-89.041 67.491z"></path>
	<path d="M125.58 575.628l172.172-98.025 90.857 155.695h-229.609l-33.42-57.67z"></path>
	<path d="M461.917 700.044h49.105v196.515h-49.105v-196.515z"></path>
	<path d="M47.104 799.279c0.909 30.909 26.183 55.619 57.228 55.619s56.318-24.71 57.226-55.535l0.002-0.084c-0.909-30.909-26.183-55.619-57.228-55.619s-56.318 24.71-57.226 55.535l-0.002 0.084zM102.4 901.167c-56.275-0.286-101.849-45.697-102.4-101.882v-0.052c0.447-55.905 45.871-101.052 101.838-101.052 0.197 0 0.395 0.001 0.592 0.002h-0.030c0.423-0.006 0.923-0.010 1.423-0.010 21.467 0 41.402 6.561 57.909 17.788l-0.359-0.23v-15.686h48.593v196.515h-48.407v-12.94c-16.364 10.997-36.513 17.552-58.192 17.552-0.34 0-0.68-0.002-1.020-0.005h0.052z"></path>
	<path d="M696.32 122.833l-172.172 98.583 239.476 411.881h230.493l-297.798-510.464z"></path>
	<path d="M274.106 799.279c-0.004 0.249-0.006 0.542-0.006 0.837 0 31.619 25.632 57.251 57.251 57.251s57.251-25.632 57.251-57.251c0-31.486-25.417-57.035-56.852-57.25h-0.020c-0.14-0.001-0.305-0.002-0.47-0.002-31.306 0-56.734 25.169-57.153 56.376v0.039zM330.473 901.167c-0.057 0-0.125 0-0.192 0-56.521 0-102.414-45.503-103.045-101.875l-0.001-0.060c0.522-55.924 45.979-101.058 101.977-101.058 0.443 0 0.886 0.003 1.328 0.008l-0.067-0.001c0.397-0.006 0.867-0.009 1.337-0.009 21.25 0 40.966 6.565 57.231 17.777l-0.339-0.221v-82.432h48.826v263.261h-48.919v-12.94c-16.365 10.944-36.48 17.487-58.119 17.548h-0.016z"></path>
	<path d="M326.47 400.431l172.823-97.978 193.024 330.845h-181.295v48.64h-49.012v-48.64l-135.54-232.867z"></path>
	<path d="M804.817 799.279c0 0.083-0.001 0.18-0.001 0.278 0 31.31 25.382 56.692 56.692 56.692s56.692-25.382 56.692-56.692c0-31.179-25.17-56.48-56.299-56.691h-0.020c-31.155 0.33-56.367 25.314-57.064 56.348l-0.001 0.065zM859.788 901.213c-56.394-0.155-102.122-45.605-102.725-101.877v-0.057c0.499-55.942 45.965-101.099 101.977-101.099 0.263 0 0.526 0.001 0.789 0.003h-0.040c0.54-0.010 1.176-0.016 1.814-0.016 21.154 0 40.774 6.57 56.931 17.781l-0.33-0.217v-15.686h49.012v196.515h-49.059v-12.94c-16.179 10.993-36.143 17.551-57.639 17.551-0.273 0-0.545-0.001-0.817-0.003h0.042z"></path>
	<path d="M578.467 799.279c0 31.439 25.486 56.925 56.925 56.925s56.925-25.486 56.925-56.925v0c0-31.439-25.486-56.925-56.925-56.925s-56.925 25.486-56.925 56.925v0zM692.317 633.344h48.454v263.261h-48.454v-12.94c-16.35 10.996-36.484 17.551-58.148 17.551-0.306 0-0.612-0.001-0.918-0.004h0.047c-56.385-0.155-102.101-45.61-102.679-101.88v-0.055c1.501-56.259 47.465-101.294 103.948-101.294 21.528 0 41.527 6.542 58.12 17.746l-0.368-0.235z"></path>
	<path d="M1493.597 0h18.618v1024h-18.618v-1024z"></path>
</svg>
