<?xml version="1.0" encoding="utf-8"?>
<!-- Generator: Adobe Illustrator 21.0.0, SVG Export Plug-In . SVG Version: 6.00 Build 0)  -->
<svg version="1.1" id="Layer_1" xmlns="http://www.w3.org/2000/svg" xmlns:xlink="http://www.w3.org/1999/xlink" x="0px" y="0px"
	 viewBox="0 0 17.4 8.7" style="enable-background:new 0 0 17.4 8.7;" xml:space="preserve">
<path d="M26.4-43.7c0-9.6-7.8-17.3-17.3-17.3H8.3C-1.2-61-9-53.2-9-43.7v14.7c0,9.6,7.8,17.3,17.3,17.3h0.8
	c9.6,0,17.3-7.8,17.3-17.3V-43.7z M23.5-28.9c0,4-1.6,7.6-4.2,10.2c-2.6,2.6-6.2,4.2-10.2,4.2H8.3c-4,0-7.6-1.6-10.2-4.2
	c-2.6-2.6-4.2-6.2-4.2-10.2v-14.7c0-4,1.6-7.6,4.2-10.2c2.6-2.6,6.2-4.2,10.2-4.2h0.8c4,0,7.6,1.6,10.2,4.2
	c2.6,2.6,4.2,6.2,4.2,10.2V-28.9z"/>
<path d="M8.7-46.4c-0.8,0-1.5,0.7-1.5,1.5v4.3c0,0.8,0.7,1.5,1.5,1.5s1.5-0.7,1.5-1.5v-4.3C10.1-45.7,9.5-46.4,8.7-46.4z"/>
<path d="M7.8,8.4c0.5,0.4,1.3,0.4,1.8,0l7.3-5.8c0.6-0.5,0.7-1.4,0.2-2c-0.5-0.6-1.4-0.7-2-0.2l0,0L8.7,5.4L2.4,0.3
	c-0.6-0.5-1.5-0.4-2,0.2c-0.5,0.6-0.4,1.5,0.2,2L7.8,8.4z"/>
</svg>
